<svg xmlns="http://www.w3.org/2000/svg" x="0px" y="0px" width="100" height="100" viewBox="0,0,256,256">
<g fill="#f5385d" fill-rule="nonzero" stroke="none" stroke-width="1" stroke-linecap="butt" stroke-linejoin="miter" stroke-miterlimit="10" stroke-dasharray="" stroke-dashoffset="0" font-family="none" font-weight="none" font-size="none" text-anchor="none" style="mix-blend-mode: normal"><g transform="scale(5.12,5.12)"><path d="M25,3c-2.72174,0 -5.47793,1.42683 -6.90039,4.21484c-3.0062,5.83735 -6.19627,12.10578 -8.7168,17.17188c-1.26044,2.53339 -2.35375,4.76673 -3.17383,6.49805c-0.82008,1.73132 -1.34742,2.88019 -1.5625,3.56641l-0.00195,0.00195v0.00195c-0.28681,0.93214 -0.59375,2.02605 -0.59375,3.25586c0,5.12139 4.17974,9.28906 9.30859,9.28906c5.6735,0 9.67683,-4.53873 11.55273,-6.68945l0.08789,0.11328l0.08789,-0.11328c1.8759,2.15072 5.87923,6.68945 11.55273,6.68945c5.12885,0 9.30859,-4.16758 9.30859,-9.28906c0,-1.22981 -0.30694,-2.32372 -0.59375,-3.25586v-0.00195l-0.00195,-0.00195c-0.21504,-0.68612 -0.74242,-1.83509 -1.5625,-3.56641c-0.82008,-1.73132 -1.91339,-3.96466 -3.17383,-6.49805c-2.52053,-5.06609 -5.7106,-11.33452 -8.7168,-17.17188l-0.00195,-0.00195c-1.42279,-2.78635 -4.17753,-4.21289 -6.89844,-4.21289zM25,5c2.03826,0 4.0416,1.01301 5.11914,3.125v0.00195h0.00195c3.00344,5.83197 6.19291,12.09717 8.70703,17.15039c1.25706,2.52661 2.34571,4.75171 3.15625,6.46289c0.80957,1.70912 1.3581,2.98398 1.45898,3.30469c0.27319,0.88786 0.50586,1.77583 0.50586,2.66602c-0.00005,4.03852 -3.25745,7.28906 -7.30859,7.28906c-4.57655,0 -8.44898,-4.14742 -10.33203,-6.25195l1.05859,-1.35352c1.70197,-2.17824 4.63281,-6.30456 4.63281,-10.43555c0,-3.83195 -3.15247,-6.95898 -7,-6.95898c-3.84753,0 -7,3.12703 -7,6.95898c0,4.14044 2.93173,8.2632 4.63281,10.4375l1.05859,1.35352c-1.88342,2.10487 -5.7562,6.25 -10.33203,6.25c-4.05115,0 -7.30859,-3.25055 -7.30859,-7.28906c0,-0.89019 0.23267,-1.77816 0.50586,-2.66602c0.10089,-0.32071 0.64942,-1.59557 1.45898,-3.30469c0.81054,-1.71118 1.89919,-3.93628 3.15625,-6.46289c2.51413,-5.05322 5.70359,-11.31842 8.70703,-17.15039h0.00195v-0.00195c1.0775,-2.11199 3.08088,-3.125 5.11914,-3.125zM25,22c2.77047,0 5,2.21894 5,4.95898c0,3.11101 -2.60896,7.15732 -4.20898,9.20508l-0.79102,1.01367l-0.79297,-1.01367c-1.59891,-2.0437 -4.20703,-6.08152 -4.20703,-9.20508c0,-2.74005 2.22953,-4.95898 5,-4.95898z"></path></g></g>
</svg>