<svg version="1.2" xmlns="http://www.w3.org/2000/svg" viewBox="0 0 1518 474" width="1518" height="474">
	<title>Airbnb_Logo_Bélo (1)-svg</title>
	<style>
		.s0 { fill: #ff5a5f } 
	</style>
	<path id="Layer" fill-rule="evenodd" class="s0" d="m769.6 149.8c-17.1 0-30.8-13.8-30.8-30.8 0-17.1 13.7-30.8 30.8-30.8 17 0 30.8 13.7 30.8 30.8 0 17-13.8 30.8-30.8 30.8zm-89.6 24.6c3.3 0 38.4 0 38.4 0v178.3h-38.4c-3.8 0-6.6-2.9-6.6-6.7v-8c0 0-14.2 19.4-46 19.4-52.1 0-91.9-39.8-91.9-93.9 0-54.5 40.3-93.8 91.9-93.8 31.3 0 46 19 46 19 0 0 0-4.8 0-7.6 0-3.4 2.8-6.7 6.6-6.7zm-6.6 57.4c-6.7-10-21.8-19.4-38.4-19.4-30.3 0-53.6 18.9-53.6 51.1 0 32.3 23.3 51.2 53.6 51.2 17 0 31.3-9 38.4-19.4zm118.9-57.4v178.3h-45.5v-178.3zm725.4 89.2c0 54-40.2 93.8-91.9 93.8-31.2 0-45.9-19.4-45.9-19.4v8c0 3.4-2.9 6.7-6.7 6.7-3.3 0-38.4 0-38.4 0v-264h45.5v100c0 0 14.7-19 46-19 51.2 0 91.4 39.8 91.4 93.9zm-45.4-0.5c0-32.2-23.3-51.2-53.6-51.2-16.1 0-31.3 9.9-38.4 19.4v63.5c7.1 10.5 20.9 19.5 38.4 19.5 30.3 0 53.6-19 53.6-51.2zm-161.1-16.1v106.1h-45.5v-100.9c0-29.4-9.5-41.3-35.1-41.3-13.7 0-28 7.2-37 17.6v124.2h-45.4v-178.3h36c3.8 0 6.6 3.4 6.6 6.7v7.6c13.3-13.8 30.8-19 48.3-19q29.9 0 49.8 17.1c16.1 13.2 22.3 30.3 22.3 60.2zm-182 16.6c0 54-40.3 93.8-91.9 93.8-31.3 0-46-19.4-46-19.4v8c0 3.4-2.8 6.7-6.6 6.7-3.3 0-38.4 0-38.4 0v-264h45.5v100c0 0 14.7-19 46-19 51.6 0 91.9 39.8 91.4 93.9zm-45.5-0.5c0-32.2-23.2-51.2-53.5-51.2-16.1 0-31.3 9.9-38.4 19.4v63.5c7.1 10.5 20.8 19.5 38.4 19.5 30.3 0 53.5-19 53.5-51.2zm-176.7-93.4c13.7 0 20.8 2.4 20.8 2.4v42.2c0 0-37.9-12.8-61.6 14.2v124.6h-45.5v-178.7c0 0 35.1 0 38.4 0 3.8 0 6.7 3.4 6.7 6.7v7.6c8.5-10 27-19 41.2-19zm-468.2 217.6c-5.2 35.1-28.4 65.4-61.6 78.7-11.8 5.2-25.1 7.5-38.3 7.5-3.8 0-8.6-0.4-12.4-0.9-15.6-1.9-31.7-7.1-47.3-16.1-19-10.9-38-26.6-58.8-49.3-20.9 22.7-39.3 38.4-58.8 49.3-15.6 9-31.7 14.2-47.3 16.1-3.8 0.5-8.6 0.9-12.4 0.9-13.2 0-26-2.3-38.3-7.5-32.7-13.3-56.4-43.2-61.6-78.7-2.4-17.1-0.5-33.7 5.6-51.2q3.6-9.3 7.2-17.1c3.7-8.5 7.5-16.6 10.9-24.2l0.4-0.9c32.7-71.1 68.3-143.2 104.7-214.3l1.5-2.8c3.8-7.1 7.5-14.7 11.3-22.3 4.8-8.5 10-17.5 17.1-26 15.6-18.1 37-28.5 60.6-28.5 23.3 0 45.1 10.4 60.2 29.4 7.6 8.5 12.3 17.5 17.1 26.1 3.8 7.6 7.6 15.1 11.4 22.3l1.4 2.8c36.9 71.1 72 143.1 104.7 214.2l0.5 0.5c3.3 7.6 7.1 15.7 10.9 24.2 2.3 5.2 4.7 11.4 7.1 17.1 6.1 17.5 8 34.1 4.2 50.7zm-32.2-40.3c-1.4-4.8-3.8-9.5-6.1-15.2-3.8-7.6-7.2-16.1-10.9-23.7v-0.5c-32.7-70.6-67.8-142.6-103.8-213.3l-1.4-2.8c-3.8-7.1-7.6-14.7-11.4-21.8-3.8-7.6-8.1-14.7-13.3-20.9-9.9-11.3-23.2-17.5-37.9-17.5-14.7 0-27.9 6.2-37.9 17.5-5.2 6.2-9.5 13.3-13.3 20.9-3.7 7.1-7.5 14.7-11.3 21.8l-1.4 2.8c-36.5 70.2-71.6 142.2-104.3 212.9l-0.5 0.9c-3.8 8.1-7.5 16.1-10.9 23.7-2.3 5.7-4.7 10.4-6.1 15.2-4.8 13.3-5.7 25.1-4.3 37 3.3 24.6 19.9 45.9 43.1 55.4 10.9 4.3 23.2 6.2 36 4.8 11.9-1.5 23.7-5.3 36.1-12.4 17-9.4 34.5-24.1 54-45.9-30.8-38.4-50.3-74-57.4-105.3-3.8-14.2-4.2-27.9-2.3-40.3 1.9-11.8 6.1-22.7 12.8-32.2 14.6-20.9 39.3-33.7 66.8-33.7 27.5 0 52.1 12.4 66.8 33.7 6.6 9.5 10.9 20.4 12.8 32.2 1.4 12.4 0.9 25.6-2.4 40.3-7.1 31.3-26.1 66.4-57.3 104.8 19.9 21.8 36.9 36.5 54 46 12.3 7.1 24.2 10.9 36 12.3 12.3 1.4 24.6 0 36-4.8 23.2-9.4 39.8-30.8 43.1-55.4 1.9-12.3 0.5-24.2-3.3-36.5zm-137.9-74c2.4-10.4 2.9-20.3 1.4-28.9-0.9-7.6-3.7-14.2-7.5-19.9-8.6-13.3-24.2-20.8-41.7-20.8-17.6 0-32.7 8-41.7 20.8-3.8 5.7-6.7 12.3-7.6 19.9-1.4 8.6-1 18 1.4 28.9 5.7 25.6 22.3 56 47.9 88.2 25.6-32.7 42.1-63 47.8-88.2z"/>
</svg>